#	OBJ Files/cone.obj : 21 vertices, 21 normals, 38 faces.
#	Range : [-1, -1, -1] -> [1, 1, 1]
#	Span : (2, 2, 2)
v 0.475528 -0.5 -0.154509
v 0.5 -0.5 0
v 0.404509 -0.5 -0.293893
v 0.475528 -0.5 0.154509
v 0.404509 -0.5 0.293892
v 0.293892 -0.5 0.404509
v 0.154509 -0.5 0.475528
v 0 -0.5 0.5
v -0.154509 -0.5 0.475528
v -0.293892 -0.5 0.404509
v -0.404509 -0.5 0.293892
v -0.475528 -0.5 0.154509
v -0.5 -0.5 0
v -0.475528 -0.5 -0.154509
v -0.404509 -0.5 -0.293892
v -0.293892 -0.5 -0.404509
v -0.154509 -0.5 -0.475528
v 0 -0.5 -0.5
v 0.154509 -0.5 -0.475528
v 0.293892 -0.5 -0.404509
v 0 0.5 0
vt 0.975528 -0.654509
vt 1.000000 -0.500000
vt 0.904509 -0.793893
vt 0.975528 -0.345491
vt 0.904509 -0.206107
vt 0.793893 -0.095491
vt 0.654509 -0.024472
vt 0.500000 0.000000
vt 0.345491 -0.024472
vt 0.206107 -0.095491
vt 0.095491 -0.206107
vt 0.024472 -0.345491
vt 0.000000 -0.500000
vt 0.024472 -0.654509
vt 0.095491 -0.793893
vt 0.206107 -0.904509
vt 0.345491 -0.975528
vt 0.500000 -1.000000
vt 0.654509 -0.975528
vt 0.793893 -0.904509
vt 0.000000 0.000000
vt 0.050000 0.000000
vt 0.500000 1.000000
vt 0.100000 0.000000
vt 0.150000 0.000000
vt 0.200000 0.000000
vt 0.250000 0.000000
vt 0.300000 0.000000
vt 0.350000 0.000000
vt 0.400000 0.000000
vt 0.450000 0.000000
vt 0.500000 0.000000
vt 0.550000 0.000000
vt 0.600000 0.000000
vt 0.650000 0.000000
vt 0.700000 0.000000
vt 0.750000 0.000000
vt 0.800000 0.000000
vt 0.850000 0.000000
vt 0.900000 0.000000
vt 0.950000 0.000000
vt 1.000000 0.000000
vn 0.561494 -0.0381382 -0.18244
vn 0.442793 -0.278604 0
vn 0.0716453 -0.855721 -0.0520535
vn 0.421121 -0.278604 0.13683
vn 0.358227 -0.278604 0.260267
vn 0.260267 -0.278604 0.358227
vn 0.13683 -0.278604 0.421121
vn 0 -0.278604 0.442793
vn -0.13683 -0.278604 0.421121
vn -0.260267 -0.278604 0.358227
vn -0.358227 -0.278604 0.260267
vn -0.421121 -0.278604 0.13683
vn -0.442793 -0.278604 0
vn -0.421121 -0.278604 -0.13683
vn -0.358227 -0.278604 -0.260267
vn -0.260267 -0.278604 -0.358227
vn -0.13683 -0.278604 -0.421121
vn 0 -0.278604 -0.442793
vn 0.13683 -0.278604 -0.421121
vn 0.347022 -0.0381383 -0.477636
vn -7.15256e-008 0.442793 -2.08616e-008
f 1/1/1 2/2/2 3/3/3
f 2/2/2 4/4/4 3/3/3
f 4/4/4 5/5/5 3/3/3
f 5/5/5 6/6/6 3/3/3
f 6/6/6 7/7/7 3/3/3
f 7/7/7 8/8/8 3/3/3
f 8/8/8 9/9/9 3/3/3
f 9/9/9 10/10/10 3/3/3
f 10/10/10 11/11/11 3/3/3
f 11/11/11 12/12/12 3/3/3
f 12/12/12 13/13/13 3/3/3
f 13/13/13 14/14/14 3/3/3
f 14/14/14 15/15/15 3/3/3
f 15/15/15 16/16/16 3/3/3
f 16/16/16 17/17/17 3/3/3
f 17/17/17 18/18/18 3/3/3
f 18/18/18 19/19/19 3/3/3
f 19/19/19 20/20/20 3/3/3
f 1/21/1 3/22/22 21/23/21
f 3/22/3 20/24/20 21/23/21
f 20/24/20 19/25/19 21/23/21
f 19/25/19 18/26/18 21/23/21
f 18/26/18 17/27/17 21/23/21
f 17/27/17 16/28/16 21/23/21
f 16/28/16 15/29/15 21/23/21
f 15/29/15 14/30/14 21/23/21
f 14/30/14 13/31/13 21/23/21
f 13/31/13 12/32/12 21/23/21
f 12/32/12 11/33/11 21/23/21
f 11/33/11 10/34/10 21/23/21
f 10/34/10 9/35/9 21/23/21
f 9/35/9 8/36/8 21/23/21
f 8/36/8 7/37/7 21/23/21
f 7/37/7 6/38/6 21/23/21
f 6/38/6 5/39/5 21/23/21
f 5/39/5 4/40/4 21/23/21
f 4/40/4 2/41/2 21/23/21
f 2/41/2 1/42/1 21/23/21
